<?xml version="1.0" encoding="UTF-8"?>
<!DOCTYPE svg  PUBLIC '-//W3C//DTD SVG 1.1//EN'  'http://www.w3.org/Graphics/SVG/1.1/DTD/svg11.dtd'>
<svg enable-background="new -721.4609 -342 2700.9219 1366.9999" version="1.1" viewBox="-721.4609 -342 2700.9219 1366.9999" xml:space="preserve" xmlns="http://www.w3.org/2000/svg">
	<circle cx="1036" cy="-274.16" r="8.594" fill="none"/>
	<path d="m1058.8 9.9777c-1.4231-2.1658-3.006-4.2056-4.6417-6.2027 1.6354 1.997 3.2186 4.0369 4.6417 6.2027z" fill="none"/>
	<path d="m892.7 74.535c-7.528 4.2694-12.746 13.138-11.674 21.863 1.5675 9.0339 8.7657 18.831 18.996 17.552 9.6938-1.1137 21.986-8.0851 20.77-19.367-1.8153-12.458-14.603-27.06-28.092-20.048z" fill="none"/>
	<path d="m467.35-87.986c5.2087 0 9.4455-4.2368 9.4455-9.4455s-4.2368-9.4455-9.4455-9.4455-9.4455 4.2368-9.4455 9.4455 4.2368 9.4455 9.4455 9.4455zm0-15.984c3.6054 0 6.5391 2.9337 6.5391 6.539s-2.9337 6.539-6.5391 6.539-6.539-2.9337-6.539-6.539 2.9336-6.539 6.539-6.539z" fill="none"/>
	<path d="m467.35-90.892c3.6054 0 6.5391-2.9337 6.5391-6.539s-2.9337-6.539-6.5391-6.539-6.539 2.9337-6.539 6.539 2.9336 6.539 6.539 6.539z"/>
	<path d="m1893.5-28.633c-12.582-29.907-33.557-56.142-59.999-74.932-34.856-23.636-79.056-34.63-120.62-25.596-8.8276 2.1864-17.346 5.4247-25.555 9.2607-0.6805 0.3301-2.0625 0.9696-2.743 1.2995-25.699 14.933-42.632 41.972-47.603 70.992-4.7852 32.526 8.1469 68.909 37.29 86.09 6.2495 3.6714 13.035 6.3526 20.027 8.2914 2.5165 0.7013 5.0533 1.3613 7.6522 2.0212 15.077 0.227 30.608-2.3512 43.478-10.725 14.747-9.6114 25.74-24.606 30.732-41.457 1.0106-4.4963 1.6704-9.0339 2.2274-13.592l-0.103-1.7119c0.2062-19.182-8.4978-38.693-24.73-49.418-19.697-13.654-49.294-9.632-64.144 9.3433-13.571 16.459-11.901 42.736 3.5065 57.441 9.7351 9.8796 26.4 12.891 38.239 4.9914 8.3121-4.8264 12.808-13.798 15.015-22.832 0.1855-5.2595-0.0413-10.54-0.6805-15.737-5.6102-12.272-18.253-22.977-32.464-20.502 0.6599 3.3206 0.1237 7.6107 3.3826 9.7351 7.1982 4.7233 18.707 1.32 23.368 10.086 9.1165 14.85-2.2893 35.414-18.893 37.93-15.675 3.0731-30.546-9.467-34.217-24.194-4.8468-17.14 4.1664-36.486 19.842-44.612 12.87-7.2808 29.412-6.0845 41.89 1.4643 11.983 7.1982 20.337 19.883 22.482 33.681 2.4958 12.85-0.8867 26.05-6.5793 37.579-4.2075 8.0233-10.313 14.953-17.573 20.337-16.975 12.272-40.096 14.768-59.215 6.1463-1.9388-0.8869-3.7745-1.8357-5.5896-2.8463-25.183-12.829-39.167-41.972-37.62-69.631 1.5881-25.616 14.211-51.089 35.64-65.774 21.224-14.871 48.408-19.037 73.756-15.943 37.724 4.2076 73.178 23.554 98.3 51.852 29.082 31.948 44.241 75.653 42.632 118.68-1.1754 35.228-14.169 69.26-34.011 98.135-1.8973 2.6606-3.8156 5.3007-5.7545 7.8995-17.016 22.275-38.796 41.333-64.433 53.027-36.898 17.944-79.531 20.893-119.77 15.882-0.9281-0.1237-2.7638-0.3506-3.6714-0.4743-44.922-5.8989-88.132-20.893-129.3-39.394-3.2177-1.4643-6.3734-3.0318-9.5082-4.5376-39.642-18.501-77.283-41.085-113.32-65.836-10.622-7.2395-18.934-17.181-28.731-25.41-32.216-27.597-67.135-52.574-105.85-70.208-3.3619-1.485-6.7032-2.9081-10.065-4.2901-7.0743-2.8668-14.376-5.3832-20.646-9.8382 5.3834-1.4644 10.498-3.7332 15.49-6.1876 5.4451-2.8256 10.87-5.7339 16.17-8.8483 8.5179-5.177 16.789-10.808 24.874-16.686 2.1038-1.5675 4.2074-3.1969 6.3112-4.8057 9.9828-7.425 19.347-15.613 28.216-24.338 12.045-11.364 22.523-24.194 32.898-37.064-15.139-2.2069-30.505-1.4643-45.665-3.2382-6.7445-0.5568-13.448-1.2375-20.13-2.083-5.7129-0.7838-11.364-1.7326-16.995-2.7638-0.8455-0.165-2.5162-0.4743-3.3617-0.6394-33.207-6.4144-66.372-16.686-94.526-35.95-27.143-18.006-48.531-45.293-57.276-76.87-3.2174-10.725-4.5787-21.863-6.3525-32.877-3.4445-20.501-14.541-41.003-33.392-51.006-32.505-17.016-78.644-1.8767-93.164 32.258-1.4437 2.5575-2.475 5.7956-5.5275 6.8268-7.6728 3.4858-15.779 5.8781-23.348 9.5701 9.302 5.177 20.811 6.9917 28.38 14.871 0.3298 0.928 0.9693 2.764 1.2994 3.692 2.0006 4.9911 4.7024 9.6731 7.4457 14.293-15.263 9.4465-27.266 23.472-34.898 39.642-17.181 36.342-18.15 79.902-2.8465 117.07 5.2182 11.571 11.818 22.626 19.883 32.464 3.8156 4.5169 7.6934 9.0132 12.086 13.014 14.726 11.426 29.907 22.977 47.562 29.535 2.1886 0.7509 4.3995 1.5244 6.6327 2.32 0.1752 1.648 0.2024 1.9042 0.3776 3.5522-10.588 6.308-21.89 11.285-32.173 18.094-24.42 14.19-46.345 32.052-68.641 49.274-6.7032-4.5169-14.211-7.6314-21.904-10.003 7.0746-10.127 13.778-21.43 12.891-34.3-2.0625-7.3014-7.2599-14.768-15.324-15.758-12.416-2.0419-24.255 4.9913-31.639 14.52-1.7531 3.2175-3.4858 6.4144-5.1769 9.632-8.0645-6.9713-16.954-15.654-28.545-14.314-7.3014-0.3093-12.354 5.3213-17.346 9.7145-0.6805 6.6414-2.1245 13.53-0.2475 20.11 2.2894 6.827 7.9613 11.653 12.87 16.603-10.044 4.3314-21.388 10.21-24.214 21.78-3.7746 12.025 4.9911 25.287 17.119 27.576 10.601 1.9801 20.171-4.4344 27.947-10.828-1.0106 10.21-0.103 20.563 3.238 30.298-13.86 15.386-29.04 29.494-42.818 44.963-54.513 56.926-107 115.85-163.87 170.49-7.033 6.8682-14.108 13.674-21.285 20.378-14.706 14.004-29.453 28.092-45.623 40.405 11.736-16.748 22.915-34.011 30.897-52.945 7.879-20.006 12.973-41.189 13.922-62.701 1.8767-29.226-3.8365-58.514-13.819-85.904-2.5988-7.0951-5.569-14.025-8.5391-20.955-6.4761-12.396-12.726-24.977-20.852-36.404-5.4867-8.147-12.334-15.304-17.47-23.657-5.4864-8.9513-9.6938-18.563-13.757-28.174-8.6212-19.429-14.912-39.848-19.202-60.659-4.9708-28.195-5.6719-58.72 7.2601-85.017 11.777-24.75 35.537-42.137 61.298-50.181 36.94-11.22 79.139 7.7139 98.094 40.756 10.189 17.346 14.355 39.436 7.2188 58.679-1.3405 3.2175-2.8667 6.3526-4.5994 9.3638-5.4645 9.2192-14.92 14.488-24.914 17.456-4.442 1.3191-9.1335 1.5843-13.708 0.8428-8.5742-1.39-17.041-4.1238-23.131-10.605-10.993-10.601-13.097-29.35-3.197-41.395 7.879-10.354 24.07-14.726 35.331-7.2808 6.0869 3.9092 8.5114 10.96 10.837 17.513 0.4534 1.2778 1.6334 2.1536 2.9871 2.229 0.0203 0.0011 0.0405 0.0023 0.0608 0.0034 1.7712 0.0985 3.3305-1.1889 3.5396-2.9505 0.0806-0.6793 0.0901-1.4311 0.0489-2.2084-0.2642-4.9735-2.4902-9.7188-6.1361-13.112-8.8853-8.2691-23.109-9.948-34.582-6.7341-17.511 5.3213-28.958 24.73-24.297 42.632 2.3715 5.5716 5.7325 10.572 9.6749 15.109 8.0254 9.2375 19.916 14.214 32.129 13.451 4.3621-0.2724 8.7057-0.7215 12.997-1.6035 11.736-3.0938 22.482-10.251 28.875-20.687 8.7657-12.994 9.3846-29.453 7.8787-44.53-3.2585-20.914-13.695-40.817-29.907-54.554-19.058-16.314-44.344-25.266-69.445-24.235-20.976 0.5363-41.065 8.807-58.308 20.44-9.3433 6.992-17.779 15.242-24.73 24.647-16.418 24.709-20.44 55.234-18.439 84.275 3.0319 28.257 11.798 55.379 21.924 81.779-17.737-12.891-36.816-24.173-57.709-31.123-9.8176-3.3413-19.8-6.2082-30.03-7.9202-9.6114-1.5881-19.346-2.1243-29.04-2.805 18.171-8.7657 35.805-19.635 48.614-35.537 19.903-23.41 30.422-54.719 27.411-85.43-0.99-17.078-7.6725-33.062-15.036-48.284 3.6507-3.3619 10.395-12.478 10.271-13.221-5.177 0.66-10.395 1.1962-15.593 1.485 5.1976-5.7337 11.179-10.704 17.098-15.696-7.6522-0.0413-15.366 0-22.853 1.7737-4.1457 0.66-8.7244 2.4544-12.561-0.165-9.013-5.0326-18.48-9.7765-28.916-10.725-3.7706-0.4391-7.2591-0.2256-9.9982 0.1551-0.1324 0.0184-0.2477 0.0398-0.3759 0.0589l0.0984-18.606c1.8483-0.959 3.006-3.0649 2.4456-5.3957-0.3946-1.6413-1.7144-3.0005-3.3481-3.4256-3.1854-0.8289-6.0492 1.5528-6.0492 4.6031 0 1.9402 1.1632 3.6024 2.8259 4.3476l-0.1022 19.303c-0.8512 0.2211-1.3366 0.3824-1.3366 0.3824-0.4565 0.1667-0.9109 0.3417-1.3669 0.5108l-4.7223-25.039c1.4554-1.1262 2.263-3.0508 1.67-5.1395-0.4412-1.5542-1.7254-2.8135-3.2885-3.222-3.1875-0.8329-6.0545 1.5498-6.0545 4.6018 0 2.2418 1.5519 4.1084 3.6364 4.6193l4.8426 25.677c-0.8299 0.3268-1.6592 0.6536-2.4835 0.9935 0.0775-0.4401 0.0453-0.9036-0.1826-1.3279l-8.1121-15.097c0.7738-1.0924 1.1124-2.5136 0.7117-4.0257-0.4267-1.6103-1.7457-2.9283-3.3611-3.3352-3.1691-0.7983-6.0086 1.5762-6.0086 4.6135 0 2.634 2.1355 4.7696 4.7696 4.7696 0.0952 0 0.1838-0.0224 0.2777-0.028l8.0892 15.055c0.1629 0.3031 0.3986 0.5373 0.6649 0.7181-6.112 2.7008-11.992 5.8812-17.297 9.9901-20.832 15.675-37.518 35.95-54.244 55.73-10.808 13.654-22.255 26.813-34.073 39.58-13.736 14.396-28.05 29.02-46.324 37.559-7.3427 3.3824-15.201 5.4244-23.038 7.2188 6.6826 6.8681 13.345 13.819 20.852 19.8 4.62 3.5888 9.4878 6.8682 14.376 10.086 13.18 8.8275 27.885 14.933 42.591 20.708 19.14 5.4244 38.817 9.0545 58.782 8.807-10.457 4.8469-21.182 9.2814-30.773 15.716-5.4036 3.6094-10.725 7.3839-15.799 11.447-2.2277 1.8563-4.3519 3.8157-6.4557 5.8163-2.6811 2.4957-5.3419 5.0119-7.9819 7.5694-1.6089 1.5469-3.1764 3.1351-4.7026 4.7644-11.736 14.706-22.584 30.773-27.72 49.088-1.712 5.9607-3.3826 11.922-4.7439 17.985-1.0313 9.797-1.32 19.78 0.2475 29.556 3.6301 17.49 11.921 33.846 23.348 47.541 20.564 24.317 54.905 36.465 85.966 27.968 3.6094-1.0313 7.1776-2.1656 10.704-3.4444 5.177-2.4132 10.065-5.3833 14.664-8.7864 8.7244-6.9713 15.943-15.943 20.336-26.256 6.7858-14.046 6.3321-30.113 3.8156-45.128-5.3625-16.088-14.726-31.495-29.411-40.59-14.211-9.3225-32.279-11.426-48.573-6.9301-15.242 5.6101-28.236 18.686-30.917 35.104-3.0525 13.344 1.423 27.205 8.8687 38.301 10.251 13.344 28.195 19.718 44.489 14.994 7.0746-3.465 14.025-8.1675 17.614-15.448 10.457-20.068-1.1755-47.5-21.966-55.461-0.495 3.6301-1.8153 7.7139 0.4743 11.076 5.3829 8.9513 17.696 11.715 21.347 22.028 3.5268 10.498-2.0625 21.739-9.9413 28.69-6.3114 4.187-13.757 7.4457-21.471 6.497-10.498-1.0313-19.573-7.4252-26.235-15.283-18.15-21.821-3.733-58.452 22.915-65.3 24.193-6.332 49.191 9.4669 59.751 30.938 12.375 23.286 6.1463 54.348-14.334 70.992-29.391 26.483-79.139 20.13-103.35-10.23-2.3924-3.0112-4.5788-6.1669-6.6619-9.3845-20.006-28.092-17.635-67.011-0.6189-95.887 6.7651-8.6213 13.293-17.502 20.811-25.493 6.6745-7.0934 19.573-17.861 29.515-25.431 26.895-16.129 58.906-23.368 90.153-21.492 14.82 0.866 29.132 4.9619 43.511 8.3815 1.3865 0.3298 2.7313 0.7998 4.0161 1.4168 5.4026 2.5946 20.732 10.046 28.931 14.952 2.0419 1.2375 4.1044 2.5162 6.1465 3.8156 6.0844 3.8569 11.88 8.1676 17.387 12.829 19.182 15.923 34.918 35.764 46.448 57.833 12.21 23.348 21.141 48.572 24.771 74.746 1.6912 10.127 1.918 20.398 1.7325 30.628v1.7118c-0.062 4.4963-0.2888 9.0339-0.7631 13.53-1.5469 11.901-3.8983 23.74-7.5076 35.207-4.4551 13.716-10.189 27.019-17.408 39.497-10.87 18.315-23.884 35.352-38.528 50.8-1.0726 1.0724-2.1245 2.145-3.1764 3.2175-8.6625 8.7038-17.635 17.119-26.978 25.08-28.483 23.76-59.752 44.138-92.587 61.339-16.624 9.3433-34.052 17.036-51.171 25.39-10.849 3.6094-21.058 8.869-31.804 12.746-3.1351 1.155-6.2495 2.31-9.364 3.4443-14.355 5.1357-28.628 11.034-43.787 13.303-14.334 2.4131-57.792 13.035-66.29 13.778-47.603 8.2088-95.742 14.025-144.07 14.953-63.588 1.7531-127.26 0.0206-190.72-4.1663-8.7864-0.2682-17.573-0.6188-26.276-1.8357-20.419-0.4537-40.735-2.5369-61.071-4.0425-12.128-1.0106-24.317-1.4644-36.321-3.465 36.754-4.1251 72.56-15.16 105.75-31.33 0.99-0.4951 2.9907-1.485 4.0013-1.98 8.1883-4.1663 16.026-8.9926 23.76-13.943 7.6314-4.455 14.83-9.5907 21.801-15.015 8.3326-6.5383 16.314-13.571 23.74-21.12 11.983-12.313 22.626-25.967 31.206-40.859 11.653-20.398 19.346-43.499 19.243-67.176 0.7838-32.258-12.664-62.99-31.247-88.73-13.613-16.892-29.35-32.114-47.108-44.633-38.115-28.133-83.594-44.159-129.57-53.997-3.7332-0.3712-7.4663-0.8251-11.2-1.1963-48.428-5.6513-98.506-1.4232-144.13 16.397-14.788 5.8781-29.308 12.581-42.715 21.203-14.747 9.4463-28.442 20.625-40.157 33.702-2.2894 2.475-4.5582 4.9913-6.7032 7.6107-2.2482 2.9082-4.4345 5.8576-6.497 8.8895-12.85 19.161-20.584 41.952-19.408 65.196 2.5782 24.606 14.273 47.582 31.062 65.547 12.581 13.674 27.411 25.184 43.56 34.362 3.9394 2.2895 7.92 4.4551 11.983 6.5176 3.527 1.7325 7.1158 3.3619 10.725 4.95 48.242 21.718 104.26 26.648 154.79 9.9002 13.86-4.7439 27.308-10.828 39.786-18.542 13.736-8.9306 26.091-20.006 36.115-32.98l1.1757-0.433c6.3526-10.581 12.293-21.615 15.201-33.702 1.7119-14.376-2.2481-28.504-3.7743-42.715-4.2076-11.323-13.551-19.635-23.678-25.658-10.766-5.8781-21.43-11.983-32.505-17.263-7.3632-3.2587-14.561-6.8888-21.326-11.261-1.7532-1.1139-3.465-2.2689-5.1563-3.4445-6.4351-4.4963-12.334-9.6938-17.655-15.428-2.4544-2.6194-4.8057-5.3419-7.0333-8.1675-4.0425-5.2596-7.3013-11.035-10.601-16.748-2.3718 3.7744-4.7644 7.5283-7.0332 11.364-3.4032 10.622-8.0026 21.1-8.6007 32.402-0.9901 10.044 0.7838 20.048 2.805 29.865 5.0532 8.6833 10.766 17.098 17.985 24.173 1.9594 1.8355 4.0426 3.5888 6.1671 5.2594 20.666 15.098 45.272 23.224 69.796 29.556 5.7957 1.588 11.942 2.1037 17.676-0.1237-24.709-13.18-51.666-23.43-72.498-42.777-7.8376-7.1156-12.066-17.16-14.231-27.328 6.8476 9.6114 14.17 18.975 23.41 26.462 21.801 17.82 48.016 29.082 73.22 41.209-0.3299 12.788-4.1662 25.245-11.633 35.682l-0.8043 1.3405c-2.5782 3.7332-5.4451 7.2808-8.5182 10.601-4.3107 4.6407-9.0132 8.8895-13.963 12.829-7.6314 6.3525-16.067 11.694-24.977 16.088-10.271 5.28-21.203 9.1576-32.258 12.375-44.716 11.839-93.144 5.5276-134.56-14.541-2.9287-1.382-5.8576-2.7845-8.7244-4.2694-1.815-0.9488-3.5889-1.9388-5.3626-2.9494-13.716-8.2708-27.04-17.532-38.074-29.247-8.7039-9.4669-16.418-20.006-21.656-31.804-1.9594-4.8675-3.527-9.8795-4.7644-14.953-1.0519-5.0532-1.6707-10.168-1.9388-15.304-0.8457-25.348 11.798-49.129 28.669-67.259 8.3945-9.4464 17.82-17.965 28.401-24.915 16.397-11.88 34.836-20.625 53.997-27.102 30.814-10.704 63.732-14.953 96.299-13.324 21.409 0.8663 42.653 4.4758 63.34 10.024 8.4357 2.3307 16.789 4.95 24.956 8.0438 19.14 7.5076 37.765 16.438 54.884 27.865 6.332 4.1044 12.375 8.6213 18.192 13.448 5.0532 4.1869 9.962 8.5389 14.664 13.118 17.222 17.14 31.598 37.682 38.899 61.03 8.4357 25.802 6.6413 54.636-4.62 79.304-8.2707 19.202-20.893 36.342-35.579 51.13-7.2601 7.4663-15.18 14.273-23.41 20.646-2.5575 1.9182-5.115 3.8156-7.7138 5.6513-34.857 24.42-75.179 40.198-116.57 49.418-16.562 4.0013-33.454 6.5383-50.408 8.0439-17.16 1.4025-34.362 2.1863-51.584 1.7325-26.895-1.5264-53.543-6.0226-80.376-8.5389-11.426-1.2787-22.791-2.9288-34.176-4.4138-38.404-4.3519-76.705-9.632-115.05-14.458-7.9408-0.99-15.861-2.0212-23.781-3.1144-7.1982-1.0313-14.396-2.0006-21.595-2.9494-3.9601-0.433-7.9202-1.0313-11.88-1.5675-3.3619-0.3919-6.7032-0.8663-10.065-1.2993-10.024-1.2789-20.068-2.4339-30.072-3.9188-5.7338-0.8044-11.488-1.5469-17.222-2.2482v91.287c15.118 0.3094 30.216 1.155 45.334 1.2787 23.265-0.0206 46.469 1.4645 69.713 1.8151 62.123 1.1138 124.23 3.0938 186.33 4.2901 11.447 0.1443 22.915 0.0825 34.341 0.4537 15.428 0.0826 30.835 0.2063 46.262 0.5982 7.3221 0.0618 14.665 0 21.987 0.1238 46.118 0.3299 92.236 0 138.37-0.5363 4.9087-0.0825 9.8382-0.2062 14.768-0.33 10.065-0.2476 20.13-0.2476 30.195-0.5776 12.643-0.5775 25.307-0.6807 37.971-1.0519 24.647-1.1963 49.377-1.2994 74.003-3.3413 17.119-1.7119 34.795-0.5363 51.274-6.2288 56.142-5.5276 112.2-12.437 167.91-21.388 3.1968-0.4124 6.4142-0.7838 9.6318-1.1344 13.572-1.2168 27.122-2.7019 40.59-4.7644 14.087-2.3513 28.133-5.0944 42.076-8.2914-4.0014 4.785-8.1678 9.4257-11.921 14.396-8.0233 13.035-15.531 26.813-18.233 42.055-2.4336 11.571-1.6088 23.472-0.1855 35.125l0.5982 1.6707c1.2788 3.7332 2.4543 7.5076 3.7744 11.261 1.1758 3.1144 2.5162 6.1671 4.0012 9.1577 7.1572 14.273 17.49 27.081 30.753 36.053 2.3717 1.4025 4.8053 2.7226 7.2599 4.022 10.416 5.6306 21.945 8.91 33.681 10.292 3.0938 0.2062 6.2082 0.433 9.3433 0.5774 27.184-0.1855 53.316-15.407 66.496-39.209 6.8684-12.746 7.8996-28.731 0.9283-41.663-4.0427-6.8889-8.819-13.848-15.675-17.82-4.2894-2.4854-9.2548-3.6784-14.067-4.7851-12.182-2.8018-27.052 0.6508-33.764 11.282-3.6919 5.8485-5.6037 12.988-5.7543 19.924-0.2787 12.838 9.9 24.132 21.986 29.144 7.5283 1.7737 16.789 3.1763 22.874-2.8669 3.1144-2.145 4.1698-7.6205 1.5675-9.302-5.8885-3.8049-11.942 8.3121-19.202 8.8277-10.519-0.3301-19.3-8.8936-21.636-18.893-1.676-7.1754 0.1032-14.582 3.9599-20.728 5.2802-5.8782 12.178-10.194 20.234-11.138 0.9328-0.1093 2.774-0.5533 3.692-0.5982 6.8723-0.3362 13.571 2.4957 19.305 6.3526 2.4546 2.1037 4.723 4.4138 6.9507 6.827 9.8589 11.076 10.54 28.05 3.7743 40.879-8.91 18.13-27.122 30.072-46.448 34.547-6.8064 1.155-13.695 1.7325-20.584 1.7944-12.437-0.6188-24.544-4.5789-35.372-10.622-29.927-18.46-45.107-57.751-35.991-91.617 2.7844-9.962 7.4044-19.326 13.241-27.865 6.5796-10.436 14.644-19.903 23.719-28.277 9.0341-8.4564 21.966-9.5908 33.228-13.386l1.7325-0.7632c1.4646-0.6599 2.9495-1.3199 4.4758-1.9181 0.9693-0.3506 2.9286-1.0313 3.8979-1.3819 39.353-13.819 77.077-31.99 113.21-52.759 70.105-40.9 133.4-92.277 193.01-147.08 63.856-58.555 123.57-121.36 186.64-180.72 33.929-31.433 68.661-62.226 106.88-88.4 2.2897-1.5469 4.5994-3.0525 6.9303-4.5582 1.2372-0.7836 3.7124-2.3512 4.9498-3.135 38.157-25.637 81.449-44.014 127.09-50.594 0.7629-0.0206 2.2686-0.0618 3.0112-0.0618 35.166-2.7225 70.951 2.0832 103.64 15.469 29.556 11.426 57.111 27.679 82.192 46.984 8.6215 6.5176 16.933 13.448 24.956 20.728 1.5469 1.382 3.1558 2.7845 4.7439 4.1663 11.839 10.23 22.585 21.656 33.021 33.289 18.274 20.976 34.774 43.56 48.325 67.878 17.676 31.062 31.598 64.454 39.786 99.311 0.7012 2.4956 1.3611 4.9913 1.9592 7.5281 5.9608 23.884 8.5802 48.428 9.9003 72.952 0.0619 1.2994 0.1649 3.8982 0.2268 5.1976-0.0619 22.646-1.6294 45.355-5.6306 67.692-2.2688 12.891-5.4657 25.596-8.9926 38.198-9.5289 32.588-24.028 63.773-43.024 91.927-14.066 20.976-30.112 40.859-49.088 57.586-8.9926 9.0957-18.872 17.284-29.082 24.956-4.7233 3.6507-9.6735 7.0126-14.603 10.354-11.88 7.8376-24.338 14.788-37.167 20.935-7.3837 3.5476-14.912 6.8064-22.584 9.6321-10.251 3.8569-20.811 6.7444-31.495 9.0132-42.632 10.333-89.246 6.0432-128.12-14.871-10.106-5.2387-19.532-11.694-28.463-18.748-13.675-10.54-25.864-23.018-36.115-36.898-29.226-38.61-42.426-89.72-32.238-137.41 7.3633-38.94 31.433-74.292 64.825-95.598 27.349-16.892 60.803-23.616 92.525-17.923 6.1875 1.1137 12.272 2.7637 18.295 4.6819 36.816 11.798 68.434 40.467 81.779 76.973 8.6831 22.832 10.168 48.49 3.3826 72.003-2.743 11.076-7.9613 21.368-13.943 31-11.695 15.696-27.164 29.164-45.974 35.352-33.289 11.756-75.117 5.012-98.486-22.812-0.4537-0.5569-1.4027-1.6706-1.877-2.2275-16.583-18.047-15.944-44.344-13.221-67.094-0.0619-3.0526-0.1031-6.0638-0.2268-9.0751-0.4744-6.0638-1.7118-12.024-3.5271-17.8-0.5566-1.2994-1.6499-3.9188-2.2068-5.2388-3.9395 0.1444-9.3843-0.66-11.261 3.795-4.9294 10.086-3.1967 21.76-4.0013 32.608 3.2383 30.979 18.645 60.473 42.344 80.686 8.0646 6.1051 17.036 10.973 26.442 14.706 7.1362 1.8356 14.334 3.3826 21.615 4.5995 38.734 4.0013 79.077-14.458 100.14-47.459 7.2599-11.138 12.313-23.534 16.067-36.218 4.8469-26.751 3.1144-55.111-8.2295-80.067-21.1-48.861-70.188-82.728-122.62-88.895-24.998-1.8769-50.325 1.7119-73.529 11.261-5.899 2.4751-11.592 5.4451-17.036 8.7451-6.8477 4.3932-13.468 9.1163-19.656 14.376-11.777 10.354-22.048 22.337-30.897 35.248-2.7845 4.0839-5.4038 8.312-7.7964 12.643-4.7645 9.3845-9.4053 18.893-12.911 28.834-5.177 16.933-8.7658 34.362-9.859 52.058-0.1855 6.8682 0.1033 13.757 0.495 20.646 0.1033 2.0831 0.2477 4.1663 0.4127 6.2908 1.877 16.232 6.2289 32.052 11.468 47.5 5.899 11.674 11.323 23.637 18.563 34.589 24.379 34.197 57.998 62.288 97.186 77.881 35.764 14.458 75.385 17.738 113.44 12.808 7.8169-1.1137 15.572-2.7019 23.348-4.125 13.056-3.1556 25.782-7.487 38.59-11.468 40.487-15.943 77.53-39.662 110.06-68.455-12.726 31.185-22.419 63.67-27.514 97.001-0.8457 5.61-1.485 11.261-2.0419 16.933-0.7838 9.137-1.1755 18.295-1.4026 27.473 0.2064 29.494 4.8058 59.628 18.625 86.007 3.7126 6.8269 8.0646 13.303 12.829 19.45 6.3527 8.0026 13.84 15.077 22.11 21.079 13.283 9.9208 28.669 16.5 44.386 21.512 7.2599 1.6913 14.582 3.1969 21.986 4.3519 25.039 3.0525 50.924-0.5569 73.797-11.323 4.2283-2.0214 8.3943-4.2281 12.437-6.662 3.9396-2.5369 7.7345-5.3005 11.426-8.2088 1.5469-1.32 3.1144-2.64 4.6613-3.96 2.1451-1.9388 4.2697-3.9188 6.3322-5.9607 26.73-28.05 33.702-71.632 20.068-107.46-5.1151-10.23-11.798-20.068-21.388-26.565-12.581-9.0958-28.669-11.798-43.87-10.808-18.583 3.5062-36.074 15.386-43.499 33.165-3.5269 7.7758-3.197 16.48-2.4751 24.792 0.6602 2.6813 1.4645 5.3625 2.2277 8.0644 5.4451 8.5596 12.437 16.624 21.821 20.976 9.8176 5.0532 21.203 4.9706 31.907 3.4443 8.6627-3.1557 16.521-8.2708 23.265-14.561 2.702-6.6207 6.8478-15.077 2.1451-21.739-2.4956-2.3513-5.3832-1.4644-7.4869 0.7425-0.7012 9.1576-2.3719 19.284-9.9003 25.493-12.911 11.756-34.362 8.3945-45.644-4.0219-7.59-7.7551-11.756-18.851-10.271-29.68 1.8357-16.995 15.098-31.392 31.123-36.445 15.758-4.9294 34.052-2.1243 47.046 8.2708 10.106 7.7551 16.5 19.346 20.027 31.412 4.9502 18.955 3.8776 39.435-3.5269 57.606-0.4536 1.0724-1.382 3.2176-1.8563 4.29-9.8383 21.904-28.628 39.25-50.387 49.026-2.8462 1.2375-5.6719 2.4544-8.5182 3.6094-7.8584 2.5988-15.964 4.3312-24.152 5.4038-31.103 3.3412-63.072-6.4557-88.503-24.276-30.67-21.966-46.201-59.937-48.263-96.712-1.7944-18.934-0.9902-38.012 1.6499-56.823 4.6406-36.919 15.118-72.91 28.834-107.44 5.899-13.613 10.23-28.318 19.945-39.827 13.056-16.273 23.987-34.135 33.784-52.512 9.6321-18.769 18.109-38.177 24.317-58.349 4.5168-14.685 8.4769-29.577 11.241-44.695 1.0313-6.2495 2.145-12.458 3.0731-18.707 0.4126-3.527 0.7424-7.0333 1.1138-10.54 2.0419-21.265 3.3619-42.694 1.6295-64.021-0.0619-1.5675-0.1445-4.7231-0.1858-6.3113-0.5156-5.0737-0.8042-10.168-1.2994-15.242-3.7537-30.443-9.5288-60.741-19.718-89.74-7.0746-21.656-15.923-42.694-26.029-63.072-2.2482-4.4963-4.5581-8.9721-6.9921-13.345-4.0631-6.8475-8.3533-13.592-11.736-20.811 8.5179 3.5268 16.582 8.0233 24.791 12.21 51.666 25.905 106.94 45.85 164.47 53.234 4.249 0.4538 8.5183 0.7013 12.829 0.8869 17.16 1.5469 34.506 1.382 51.625-0.8456 29.474-3.5063 58.37-13.159 83.161-29.68 7.4869-5.0944 14.768-10.54 21.718-16.376 20.171-18.542 36.692-40.9 49.006-65.361 10.766-20.852 18.48-43.437 21.718-66.723 0.495-3.5476 1.052-7.0951 1.5264-10.643 3.196-33.866-0.929-68.764-14.5-100.11zm-857.47-236.94c-4.746 0-8.5935-3.8476-8.5935-8.594s3.8475-8.594 8.5935-8.594c4.7465 0 8.594 3.8476 8.594 8.594s-3.8475 8.594-8.594 8.594zm18.104 269.34c1.6357 1.9971 3.2186 4.0369 4.6417 6.2027-1.423-2.1658-3.0062-4.2057-4.6417-6.2027zm-586.76-110.65c5.2087 0 9.4455 4.2368 9.4455 9.4455s-4.2368 9.4455-9.4455 9.4455-9.4455-4.2368-9.4455-9.4455 4.2368-9.4455 9.4455-9.4455zm432.67 220.83c-10.23 1.2788-17.428-8.5182-18.996-17.552-1.0726-8.7244 4.1457-17.593 11.674-21.863 13.489-7.0126 26.276 7.5901 28.092 20.048 1.2165 11.282-11.076 18.253-20.77 19.367z"/>
	<path d="m760.78 193.44c-7.5876-5.8088-20.563-1.6037-28.98 9.3922-1.0084 1.3173-1.899 2.6739-2.6841 4.0487-0.9051-1.2992-1.9135-2.5705-3.0357-3.7925-9.3671-10.199-22.666-13.228-29.704-6.7637s-5.15 19.972 4.2171 30.171c0.0873 0.0951 0.1804 0.179 0.2686 0.2727-0.1193 0.0482-0.2393 0.085-0.3583 0.1344-12.788 5.3139-20.182 16.775-16.515 25.6s17.006 11.67 29.794 6.3566c0.1194-0.0497 0.2299-0.1085 0.3482-0.1591 0.0044 0.1286-0.0019 0.2536 0.0038 0.3826 0.6197 13.834 8.8607 24.702 18.407 24.275 9.5464-0.4276 16.783-11.989 16.163-25.823-0.0058-0.1289-0.0232-0.253-0.0303-0.3814 0.1223 0.0399 0.2377 0.0886 0.361 0.1272 13.212 4.1493 26.243 0.1222 29.106-8.9945 2.8632-9.1168-5.5259-19.871-18.738-24.02-0.1231-0.0388-0.2455-0.0648-0.3689-0.1019 0.0794-0.1015 0.1646-0.193 0.243-0.2955 8.4175-10.996 9.0904-24.619 1.5027-30.428zm-23.744 51.096c-5.5445 5.0921-14.167 4.7252-19.259-0.8191-5.092-5.5444-4.7254-14.167 0.8192-19.259 5.5442-5.0918 14.167-4.7251 19.259 0.8193 5.0919 5.5443 4.7252 14.167-0.8191 19.258z"/>
	<path d="m522.11 403.24c-2.472-14.02-20.946-22.481-41.264-18.899-2.4339 0.4293-4.7781 1.0203-7.0251 1.7376 0.3162-2.3376 0.4909-4.7487 0.4909-7.2205 0-20.63-11.541-37.355-25.777-37.355s-25.777 16.724-25.777 37.355c0 0.1923 0.0176 0.3782 0.0198 0.5699-0.1795-0.0674-0.3481-0.1478-0.5286-0.2136-19.386-7.056-39.049-1.9313-43.918 11.446-4.869 13.378 6.8997 29.942 26.286 36.998 0.1811 0.0657 0.3616 0.1126 0.5424 0.1763-0.1248 0.1456-0.2576 0.2763-0.3814 0.4237-13.261 15.804-15.171 36.034-4.2649 45.184s30.496 3.7575 43.758-12.046c0.1235-0.1474 0.2294-0.301 0.351-0.4491 0.0941 0.167 0.1715 0.3368 0.2678 0.5033 10.315 17.866 28.672 26.58 41.001 19.462 12.329-7.1181 13.961-27.372 3.646-45.239-0.096-0.1666-0.2042-0.3186-0.3021-0.4835 0.1895-0.0314 0.375-0.0459 0.5645-0.0793 20.317-3.5825 34.783-17.852 32.311-31.872zm-77.544 32.137c-11.215 0-20.306-9.0913-20.306-20.306 0-11.215 9.091-20.306 20.306-20.306 11.214 0 20.306 9.0913 20.306 20.306 1e-4 11.215-9.0913 20.306-20.306 20.306z"/>
	<path d="m1438.5 616.44c8.0753-7.4576 5.8605-22.99-4.947-34.692-1.2948-1.4019-2.6572-2.6779-4.061-3.8382 1.6504-0.7703 3.2897-1.6632 4.8953-2.6949 13.401-8.6111 19.448-23.088 13.506-32.336-5.9421-9.2476-21.623-9.7635-35.024-1.1524-0.1249 0.0803-0.2383 0.1693-0.3619 0.2508-0.0311-0.1447-0.0492-0.2879-0.0819-0.4326-3.5083-15.538-15.045-26.172-25.767-23.751-10.722 2.421-16.57 16.98-13.062 32.518 0.0328 0.1451 0.0778 0.2819 0.1118 0.4259-0.1467-0.0203-0.287-0.052-0.4344-0.0709-15.801-2.0176-29.739 5.1858-31.132 16.09-1.3922 10.904 10.288 21.378 26.09 23.396 0.1473 0.0187 0.2913 0.0234 0.4384 0.0406-0.0693 0.1308-0.1472 0.252-0.2152 0.384-7.3003 14.158-5.2982 29.719 4.4717 34.757 9.7698 5.0375 23.608-2.3561 30.908-16.514 0.0681-0.1319 0.1217-0.2656 0.188-0.3981 0.0995 0.11 0.1864 0.2245 0.2871 0.3336 10.807 11.702 26.115 15.143 34.19 7.6857zm-53.243-36.957c-4.6812-7.2852-2.5702-16.985 4.7147-21.666 7.285-4.681 16.985-2.5704 21.666 4.7148 4.6809 7.2848 2.5701 16.985-4.715 21.666-7.2848 4.681-16.985 2.5701-21.666-4.7147z"/>
	<path d="m1377.3 880.11c6.468-5.9732 4.694-18.414-3.9623-27.787-1.037-1.1228-2.1283-2.1449-3.2527-3.0742 1.3219-0.617 2.6349-1.3322 3.9209-2.1585 10.734-6.8971 15.577-18.493 10.818-25.9-4.7594-7.4069-17.319-7.8201-28.053-0.923-0.1 0.0643-0.1909 0.1356-0.2898 0.2008-0.025-0.1159-0.0396-0.2305-0.0657-0.3464-2.8101-12.445-12.05-20.963-20.638-19.024s-13.272 13.6-10.462 26.045c0.0262 0.1162 0.0623 0.2258 0.0896 0.3411-0.1176-0.0162-0.23-0.0416-0.348-0.0568-12.656-1.616-23.82 4.1536-24.935 12.887-1.1151 8.7333 8.2404 17.123 20.896 18.739 0.1179 0.015 0.2333 0.0187 0.3511 0.0325-0.0555 0.1048-0.1179 0.2018-0.1724 0.3076-5.8472 11.34-4.2437 23.804 3.5815 27.839 7.8251 4.0347 18.909-1.8871 24.756-13.227 0.0546-0.1056 0.0975-0.2127 0.1506-0.3188 0.0796 0.0881 0.1493 0.1797 0.23 0.2672 8.6563 9.3729 20.917 12.129 27.385 6.1558zm-42.645-29.601c-3.7495-5.8351-2.0586-13.604 3.7762-17.354s13.604-2.0587 17.354 3.7764c3.7493 5.8347 2.0585 13.604-3.7765 17.354-5.8347 3.7492-13.604 2.0585-17.353-3.7763z"/>
	<path d="m1630.5 345.57c6.468-5.9732 4.694-18.414-3.9623-27.787-1.037-1.1228-2.1283-2.1449-3.2527-3.0742 1.3219-0.617 2.6349-1.3322 3.9209-2.1585 10.734-6.8971 15.577-18.493 10.818-25.9s-17.319-7.8201-28.053-0.923c-0.1 0.0643-0.1908 0.1356-0.2898 0.2009-0.025-0.1159-0.0396-0.2306-0.0657-0.3465-2.8101-12.446-12.05-20.963-20.638-19.024s-13.272 13.6-10.462 26.045c0.0264 0.1162 0.0623 0.2258 0.0896 0.3412-0.1176-0.0163-0.2299-0.0417-0.348-0.0568-12.656-1.616-23.82 4.1536-24.935 12.887s8.2405 17.123 20.896 18.739c0.118 0.015 0.2333 0.0188 0.3511 0.0325-0.0555 0.1048-0.1179 0.2018-0.1724 0.3076-5.8472 11.34-4.2437 23.804 3.5815 27.838 7.8252 4.0348 18.909-1.8871 24.756-13.227 0.0546-0.1056 0.0974-0.2127 0.1505-0.3188 0.0797 0.0881 0.1493 0.1797 0.23 0.2672 8.6564 9.3728 20.917 12.129 27.385 6.1557zm-42.644-29.601c-3.7494-5.8351-2.0586-13.604 3.7762-17.354 5.835-3.7493 13.604-2.0587 17.354 3.7763 3.7493 5.8348 2.0585 13.604-3.7764 17.354-5.8347 3.7493-13.604 2.0586-17.353-3.7762z"/>
	<path d="m1510.1 931.24c4.6504-4.2946 3.3749-13.239-2.8488-19.978-0.7456-0.8073-1.5302-1.5422-2.3386-2.2103 0.9504-0.4436 1.8944-0.9578 2.819-1.5519 7.7174-4.9589 11.2-13.296 7.7777-18.621s-12.452-5.6225-20.169-0.6636c-0.0719 0.0463-0.1372 0.0975-0.2084 0.1444-0.0179-0.0833-0.0284-0.1658-0.0472-0.2491-2.0204-8.9481-8.6637-15.072-14.838-13.678-6.1746 1.3942-9.5422 9.7782-7.522 18.726 0.0189 0.0836 0.0447 0.1624 0.0643 0.2453-0.0845-0.0117-0.1653-0.03-0.2501-0.0408-9.0994-1.1619-17.126 2.9863-17.928 9.2654s5.9247 12.311 15.024 13.473c0.0848 0.0108 0.1677 0.0135 0.2524 0.0234-0.0399 0.0753-0.0847 0.1451-0.1239 0.2211-4.204 8.1533-3.051 17.114 2.5751 20.015s13.595-1.3568 17.799-9.51c0.0393-0.0759 0.0702-0.153 0.1083-0.2292 0.0573 0.0633 0.1073 0.1292 0.1654 0.1921 6.2236 6.7391 15.039 8.7206 19.689 4.4259zm-30.661-21.283c-2.6957-4.1953-1.4801-9.7813 2.7151-12.477 4.1952-2.6957 9.7813-1.4802 12.477 2.7151 2.6957 4.1951 1.48 9.7812-2.7152 12.477-4.195 2.6957-9.7812 1.4801-12.477-2.7151z"/>
	<path d="m1437.3 226.92c-10.84-19.417-42.438-22.422-70.576-6.7128-3.3706 1.882-6.5261 3.9568-9.4734 6.1678-0.7328-3.611-1.712-7.2581-2.9802-10.905-10.584-30.438-36.192-49.192-57.196-41.888s-29.45 37.9-18.866 68.338c0.0986 0.2838 0.2201 0.549 0.3217 0.8307-0.2994-0.0073-0.5895-0.0395-0.8895-0.0439-32.223-0.4642-58.604 17.185-58.925 39.42-0.3203 22.235 25.542 40.637 57.764 41.102 0.301 0.0041 0.5913-0.0193 0.8907-0.0181-0.1095 0.2788-0.2383 0.5398-0.3455 0.8208-11.457 30.12-3.8955 60.947 16.89 68.853s46.922-10.102 58.379-40.223c0.1066-0.2808 0.1841-0.5617 0.2875-0.8427 0.2245 0.1982 0.4258 0.4089 0.6534 0.6052 24.386 21.068 55.939 24.506 70.477 7.6783 14.538-16.827 6.5552-47.548-17.83-68.616-0.2272-0.1965-0.4647-0.3653-0.6937-0.5584 0.2633-0.1435 0.5297-0.2602 0.792-0.4067 28.138-15.709 42.16-44.184 31.32-63.601zm-97.92 87.198c-16.547 5.7539-34.624-2.9953-40.378-19.541-5.7538-16.546 2.9948-34.624 19.542-40.378 16.546-5.7536 34.623 2.9954 40.377 19.542 5.7537 16.546-2.9953 34.624-19.541 40.377z"/>
</svg>
